<mxfile host="app.diagrams.net" modified="2024-04-25T19:28:36.716Z" agent="Mozilla/5.0 (Windows NT 10.0; Win64; x64) AppleWebKit/537.36 (KHTML, like Gecko) Chrome/122.0.0.0 Safari/537.36" etag="yltH9vE_f8R6ZDGeL5yJ" version="24.3.0" type="device">
  <diagram name="Сторінка-1" id="cSZVBn9ICS-j4lafuPt-">
    <mxGraphModel dx="989" dy="532" grid="1" gridSize="10" guides="1" tooltips="1" connect="1" arrows="1" fold="1" page="1" pageScale="1" pageWidth="827" pageHeight="1169" math="0" shadow="0">
      <root>
        <mxCell id="0" />
        <mxCell id="1" parent="0" />
        <mxCell id="LZBUv4QuaZXEHfR5X29N-1" value="&lt;span style=&quot;font-weight: normal;&quot;&gt;Меню&lt;/span&gt;" style="swimlane;fontStyle=1;align=center;verticalAlign=top;childLayout=stackLayout;horizontal=1;startSize=26;horizontalStack=0;resizeParent=1;resizeParentMax=0;resizeLast=0;collapsible=1;marginBottom=0;whiteSpace=wrap;html=1;" vertex="1" parent="1">
          <mxGeometry x="220" y="150" width="210" height="120" as="geometry" />
        </mxCell>
        <mxCell id="LZBUv4QuaZXEHfR5X29N-2" value="списокСтрав: Страва[]" style="text;strokeColor=none;fillColor=none;align=left;verticalAlign=top;spacingLeft=4;spacingRight=4;overflow=hidden;rotatable=0;points=[[0,0.5],[1,0.5]];portConstraint=eastwest;whiteSpace=wrap;html=1;" vertex="1" parent="LZBUv4QuaZXEHfR5X29N-1">
          <mxGeometry y="26" width="210" height="26" as="geometry" />
        </mxCell>
        <mxCell id="LZBUv4QuaZXEHfR5X29N-3" value="" style="line;strokeWidth=1;fillColor=none;align=left;verticalAlign=middle;spacingTop=-1;spacingLeft=3;spacingRight=3;rotatable=0;labelPosition=right;points=[];portConstraint=eastwest;strokeColor=inherit;" vertex="1" parent="LZBUv4QuaZXEHfR5X29N-1">
          <mxGeometry y="52" width="210" height="8" as="geometry" />
        </mxCell>
        <mxCell id="LZBUv4QuaZXEHfR5X29N-4" value="додатиСтраву(страва): void&lt;div&gt;видалитиСтраву(назва): void&lt;br&gt;&lt;/div&gt;&lt;div&gt;знайтиСтраву(назва): Страва&lt;br&gt;&lt;/div&gt;" style="text;strokeColor=none;fillColor=none;align=left;verticalAlign=top;spacingLeft=4;spacingRight=4;overflow=hidden;rotatable=0;points=[[0,0.5],[1,0.5]];portConstraint=eastwest;whiteSpace=wrap;html=1;" vertex="1" parent="LZBUv4QuaZXEHfR5X29N-1">
          <mxGeometry y="60" width="210" height="60" as="geometry" />
        </mxCell>
        <mxCell id="LZBUv4QuaZXEHfR5X29N-7" value="Страва" style="swimlane;fontStyle=0;childLayout=stackLayout;horizontal=1;startSize=26;fillColor=none;horizontalStack=0;resizeParent=1;resizeParentMax=0;resizeLast=0;collapsible=1;marginBottom=0;whiteSpace=wrap;html=1;" vertex="1" parent="1">
          <mxGeometry x="530" y="158" width="140" height="104" as="geometry" />
        </mxCell>
        <mxCell id="LZBUv4QuaZXEHfR5X29N-8" value="назва: string" style="text;strokeColor=none;fillColor=none;align=left;verticalAlign=top;spacingLeft=4;spacingRight=4;overflow=hidden;rotatable=0;points=[[0,0.5],[1,0.5]];portConstraint=eastwest;whiteSpace=wrap;html=1;" vertex="1" parent="LZBUv4QuaZXEHfR5X29N-7">
          <mxGeometry y="26" width="140" height="26" as="geometry" />
        </mxCell>
        <mxCell id="LZBUv4QuaZXEHfR5X29N-9" value="ціна: float" style="text;strokeColor=none;fillColor=none;align=left;verticalAlign=top;spacingLeft=4;spacingRight=4;overflow=hidden;rotatable=0;points=[[0,0.5],[1,0.5]];portConstraint=eastwest;whiteSpace=wrap;html=1;" vertex="1" parent="LZBUv4QuaZXEHfR5X29N-7">
          <mxGeometry y="52" width="140" height="26" as="geometry" />
        </mxCell>
        <mxCell id="LZBUv4QuaZXEHfR5X29N-10" value="опис: string" style="text;strokeColor=none;fillColor=none;align=left;verticalAlign=top;spacingLeft=4;spacingRight=4;overflow=hidden;rotatable=0;points=[[0,0.5],[1,0.5]];portConstraint=eastwest;whiteSpace=wrap;html=1;" vertex="1" parent="LZBUv4QuaZXEHfR5X29N-7">
          <mxGeometry y="78" width="140" height="26" as="geometry" />
        </mxCell>
        <mxCell id="LZBUv4QuaZXEHfR5X29N-11" value="&lt;span style=&quot;font-weight: 400;&quot;&gt;Рахунок&lt;/span&gt;" style="swimlane;fontStyle=1;align=center;verticalAlign=top;childLayout=stackLayout;horizontal=1;startSize=26;horizontalStack=0;resizeParent=1;resizeParentMax=0;resizeLast=0;collapsible=1;marginBottom=0;whiteSpace=wrap;html=1;" vertex="1" parent="1">
          <mxGeometry x="520" y="450" width="230" height="110" as="geometry" />
        </mxCell>
        <mxCell id="LZBUv4QuaZXEHfR5X29N-12" value="замовлення: Замовлення[]&lt;div&gt;загальнаСума: float&lt;br&gt;&lt;/div&gt;" style="text;strokeColor=none;fillColor=none;align=left;verticalAlign=top;spacingLeft=4;spacingRight=4;overflow=hidden;rotatable=0;points=[[0,0.5],[1,0.5]];portConstraint=eastwest;whiteSpace=wrap;html=1;" vertex="1" parent="LZBUv4QuaZXEHfR5X29N-11">
          <mxGeometry y="26" width="230" height="34" as="geometry" />
        </mxCell>
        <mxCell id="LZBUv4QuaZXEHfR5X29N-13" value="" style="line;strokeWidth=1;fillColor=none;align=left;verticalAlign=middle;spacingTop=-1;spacingLeft=3;spacingRight=3;rotatable=0;labelPosition=right;points=[];portConstraint=eastwest;strokeColor=inherit;" vertex="1" parent="LZBUv4QuaZXEHfR5X29N-11">
          <mxGeometry y="60" width="230" height="8" as="geometry" />
        </mxCell>
        <mxCell id="LZBUv4QuaZXEHfR5X29N-14" value="додатиЗамовлення(замовлення): void&lt;div&gt;розрахунок(): void&lt;br&gt;&lt;/div&gt;" style="text;strokeColor=none;fillColor=none;align=left;verticalAlign=top;spacingLeft=4;spacingRight=4;overflow=hidden;rotatable=0;points=[[0,0.5],[1,0.5]];portConstraint=eastwest;whiteSpace=wrap;html=1;" vertex="1" parent="LZBUv4QuaZXEHfR5X29N-11">
          <mxGeometry y="68" width="230" height="42" as="geometry" />
        </mxCell>
        <mxCell id="LZBUv4QuaZXEHfR5X29N-16" value="Замовлення" style="swimlane;fontStyle=0;childLayout=stackLayout;horizontal=1;startSize=26;fillColor=none;horizontalStack=0;resizeParent=1;resizeParentMax=0;resizeLast=0;collapsible=1;marginBottom=0;whiteSpace=wrap;html=1;" vertex="1" parent="1">
          <mxGeometry x="310" y="480" width="140" height="78" as="geometry" />
        </mxCell>
        <mxCell id="LZBUv4QuaZXEHfR5X29N-17" value="страва: Страва" style="text;strokeColor=none;fillColor=none;align=left;verticalAlign=top;spacingLeft=4;spacingRight=4;overflow=hidden;rotatable=0;points=[[0,0.5],[1,0.5]];portConstraint=eastwest;whiteSpace=wrap;html=1;" vertex="1" parent="LZBUv4QuaZXEHfR5X29N-16">
          <mxGeometry y="26" width="140" height="26" as="geometry" />
        </mxCell>
        <mxCell id="LZBUv4QuaZXEHfR5X29N-18" value="кількість: int" style="text;strokeColor=none;fillColor=none;align=left;verticalAlign=top;spacingLeft=4;spacingRight=4;overflow=hidden;rotatable=0;points=[[0,0.5],[1,0.5]];portConstraint=eastwest;whiteSpace=wrap;html=1;" vertex="1" parent="LZBUv4QuaZXEHfR5X29N-16">
          <mxGeometry y="52" width="140" height="26" as="geometry" />
        </mxCell>
        <mxCell id="LZBUv4QuaZXEHfR5X29N-43" style="rounded=0;orthogonalLoop=1;jettySize=auto;html=1;exitX=1;exitY=0;exitDx=0;exitDy=0;entryX=0;entryY=0.098;entryDx=0;entryDy=0;endArrow=none;endFill=0;entryPerimeter=0;" edge="1" parent="1" source="LZBUv4QuaZXEHfR5X29N-20" target="LZBUv4QuaZXEHfR5X29N-1">
          <mxGeometry relative="1" as="geometry" />
        </mxCell>
        <mxCell id="LZBUv4QuaZXEHfR5X29N-20" value="&lt;span style=&quot;font-weight: normal;&quot;&gt;Студент&lt;/span&gt;" style="swimlane;fontStyle=1;align=center;verticalAlign=top;childLayout=stackLayout;horizontal=1;startSize=26;horizontalStack=0;resizeParent=1;resizeParentMax=0;resizeLast=0;collapsible=1;marginBottom=0;whiteSpace=wrap;html=1;" vertex="1" parent="1">
          <mxGeometry x="30" y="351" width="160" height="106" as="geometry" />
        </mxCell>
        <mxCell id="LZBUv4QuaZXEHfR5X29N-21" value="ім&#39;я: string&lt;div&gt;курс: int&lt;br&gt;&lt;/div&gt;" style="text;strokeColor=none;fillColor=none;align=left;verticalAlign=top;spacingLeft=4;spacingRight=4;overflow=hidden;rotatable=0;points=[[0,0.5],[1,0.5]];portConstraint=eastwest;whiteSpace=wrap;html=1;" vertex="1" parent="LZBUv4QuaZXEHfR5X29N-20">
          <mxGeometry y="26" width="160" height="44" as="geometry" />
        </mxCell>
        <mxCell id="LZBUv4QuaZXEHfR5X29N-22" value="" style="line;strokeWidth=1;fillColor=none;align=left;verticalAlign=middle;spacingTop=-1;spacingLeft=3;spacingRight=3;rotatable=0;labelPosition=right;points=[];portConstraint=eastwest;strokeColor=inherit;" vertex="1" parent="LZBUv4QuaZXEHfR5X29N-20">
          <mxGeometry y="70" width="160" height="10" as="geometry" />
        </mxCell>
        <mxCell id="LZBUv4QuaZXEHfR5X29N-23" value="замовитиЇжу(страва): void" style="text;strokeColor=none;fillColor=none;align=left;verticalAlign=top;spacingLeft=4;spacingRight=4;overflow=hidden;rotatable=0;points=[[0,0.5],[1,0.5]];portConstraint=eastwest;whiteSpace=wrap;html=1;" vertex="1" parent="LZBUv4QuaZXEHfR5X29N-20">
          <mxGeometry y="80" width="160" height="26" as="geometry" />
        </mxCell>
        <mxCell id="LZBUv4QuaZXEHfR5X29N-53" style="rounded=0;orthogonalLoop=1;jettySize=auto;html=1;exitX=0;exitY=0.25;exitDx=0;exitDy=0;entryX=0.5;entryY=0;entryDx=0;entryDy=0;endArrow=none;endFill=0;" edge="1" parent="1" source="LZBUv4QuaZXEHfR5X29N-36" target="LZBUv4QuaZXEHfR5X29N-11">
          <mxGeometry relative="1" as="geometry" />
        </mxCell>
        <mxCell id="LZBUv4QuaZXEHfR5X29N-36" value="&lt;span style=&quot;font-weight: normal;&quot;&gt;Касир&lt;/span&gt;" style="swimlane;fontStyle=1;align=center;verticalAlign=top;childLayout=stackLayout;horizontal=1;startSize=26;horizontalStack=0;resizeParent=1;resizeParentMax=0;resizeLast=0;collapsible=1;marginBottom=0;whiteSpace=wrap;html=1;" vertex="1" parent="1">
          <mxGeometry x="667" y="310" width="160" height="100" as="geometry">
            <mxRectangle x="40" y="510" width="70" height="30" as="alternateBounds" />
          </mxGeometry>
        </mxCell>
        <mxCell id="LZBUv4QuaZXEHfR5X29N-37" value="ім&#39;я: string" style="text;strokeColor=none;fillColor=none;align=left;verticalAlign=top;spacingLeft=4;spacingRight=4;overflow=hidden;rotatable=0;points=[[0,0.5],[1,0.5]];portConstraint=eastwest;whiteSpace=wrap;html=1;" vertex="1" parent="LZBUv4QuaZXEHfR5X29N-36">
          <mxGeometry y="26" width="160" height="26" as="geometry" />
        </mxCell>
        <mxCell id="LZBUv4QuaZXEHfR5X29N-38" value="" style="line;strokeWidth=1;fillColor=none;align=left;verticalAlign=middle;spacingTop=-1;spacingLeft=3;spacingRight=3;rotatable=0;labelPosition=right;points=[];portConstraint=eastwest;strokeColor=inherit;" vertex="1" parent="LZBUv4QuaZXEHfR5X29N-36">
          <mxGeometry y="52" width="160" height="8" as="geometry" />
        </mxCell>
        <mxCell id="LZBUv4QuaZXEHfR5X29N-39" value="прийнятиПлатіж(рахунок): void" style="text;strokeColor=none;fillColor=none;align=left;verticalAlign=top;spacingLeft=4;spacingRight=4;overflow=hidden;rotatable=0;points=[[0,0.5],[1,0.5]];portConstraint=eastwest;whiteSpace=wrap;html=1;" vertex="1" parent="LZBUv4QuaZXEHfR5X29N-36">
          <mxGeometry y="60" width="160" height="40" as="geometry" />
        </mxCell>
        <mxCell id="LZBUv4QuaZXEHfR5X29N-41" style="rounded=0;orthogonalLoop=1;jettySize=auto;html=1;exitX=1;exitY=0.5;exitDx=0;exitDy=0;entryX=0;entryY=0.5;entryDx=0;entryDy=0;endArrow=none;endFill=0;" edge="1" parent="1" source="LZBUv4QuaZXEHfR5X29N-21" target="LZBUv4QuaZXEHfR5X29N-16">
          <mxGeometry relative="1" as="geometry" />
        </mxCell>
        <mxCell id="LZBUv4QuaZXEHfR5X29N-42" value="робить" style="text;strokeColor=none;fillColor=none;align=left;verticalAlign=top;spacingLeft=4;spacingRight=4;overflow=hidden;rotatable=0;points=[[0,0.5],[1,0.5]];portConstraint=eastwest;whiteSpace=wrap;html=1;" vertex="1" parent="1">
          <mxGeometry x="240" y="424" width="50" height="26" as="geometry" />
        </mxCell>
        <mxCell id="LZBUv4QuaZXEHfR5X29N-44" value="переглядає" style="text;strokeColor=none;fillColor=none;align=left;verticalAlign=top;spacingLeft=4;spacingRight=4;overflow=hidden;rotatable=0;points=[[0,0.5],[1,0.5]];portConstraint=eastwest;whiteSpace=wrap;html=1;" vertex="1" parent="1">
          <mxGeometry x="120" y="244" width="80" height="26" as="geometry" />
        </mxCell>
        <mxCell id="LZBUv4QuaZXEHfR5X29N-45" value="Включає" style="endArrow=open;endSize=12;dashed=1;html=1;rounded=0;exitX=1.001;exitY=0.081;exitDx=0;exitDy=0;exitPerimeter=0;entryX=-0.008;entryY=0.109;entryDx=0;entryDy=0;entryPerimeter=0;" edge="1" parent="1" source="LZBUv4QuaZXEHfR5X29N-1" target="LZBUv4QuaZXEHfR5X29N-7">
          <mxGeometry width="160" relative="1" as="geometry">
            <mxPoint x="370" y="410" as="sourcePoint" />
            <mxPoint x="530" y="410" as="targetPoint" />
          </mxGeometry>
        </mxCell>
        <mxCell id="LZBUv4QuaZXEHfR5X29N-47" value="Включає" style="endArrow=open;endSize=12;dashed=1;html=1;rounded=0;entryX=1;entryY=0;entryDx=0;entryDy=0;exitX=0;exitY=0;exitDx=0;exitDy=0;" edge="1" parent="1" source="LZBUv4QuaZXEHfR5X29N-11" target="LZBUv4QuaZXEHfR5X29N-16">
          <mxGeometry width="160" relative="1" as="geometry">
            <mxPoint x="570" y="400" as="sourcePoint" />
            <mxPoint x="539" y="179" as="targetPoint" />
          </mxGeometry>
        </mxCell>
        <mxCell id="LZBUv4QuaZXEHfR5X29N-48" style="rounded=0;orthogonalLoop=1;jettySize=auto;html=1;exitX=0.5;exitY=0;exitDx=0;exitDy=0;entryX=0;entryY=0.072;entryDx=0;entryDy=0;entryPerimeter=0;endArrow=none;endFill=0;" edge="1" parent="1" source="LZBUv4QuaZXEHfR5X29N-16" target="LZBUv4QuaZXEHfR5X29N-36">
          <mxGeometry relative="1" as="geometry" />
        </mxCell>
        <mxCell id="LZBUv4QuaZXEHfR5X29N-52" value="приймає" style="text;strokeColor=none;fillColor=none;align=left;verticalAlign=top;spacingLeft=4;spacingRight=4;overflow=hidden;rotatable=0;points=[[0,0.5],[1,0.5]];portConstraint=eastwest;whiteSpace=wrap;html=1;" vertex="1" parent="1">
          <mxGeometry x="470" y="370" width="60" height="26" as="geometry" />
        </mxCell>
        <mxCell id="LZBUv4QuaZXEHfR5X29N-56" value="виставляє" style="text;strokeColor=none;fillColor=none;align=left;verticalAlign=top;spacingLeft=4;spacingRight=4;overflow=hidden;rotatable=0;points=[[0,0.5],[1,0.5]];portConstraint=eastwest;whiteSpace=wrap;html=1;" vertex="1" parent="1">
          <mxGeometry x="570" y="396" width="70" height="26" as="geometry" />
        </mxCell>
      </root>
    </mxGraphModel>
  </diagram>
</mxfile>
